<mxfile host="Electron" modified="2024-08-01T21:42:18.397Z" agent="Mozilla/5.0 (X11; Linux x86_64) AppleWebKit/537.36 (KHTML, like Gecko) draw.io/24.5.3 Chrome/124.0.6367.207 Electron/30.0.6 Safari/537.36" etag="Qgy93-ZfT7ehyEUFSSlZ" version="24.5.3" type="device">
  <diagram name="Page-1" id="K6y5QsWKlJ1yYH2JeCqh">
    <mxGraphModel dx="1434" dy="1970" grid="1" gridSize="10" guides="1" tooltips="1" connect="1" arrows="1" fold="1" page="1" pageScale="1" pageWidth="850" pageHeight="1100" math="0" shadow="0">
      <root>
        <mxCell id="0" />
        <mxCell id="1" parent="0" />
        <mxCell id="fcbw0f38C-8INg9Vh3hB-26" value="" style="edgeStyle=orthogonalEdgeStyle;rounded=0;orthogonalLoop=1;jettySize=auto;html=1;" edge="1" parent="1" source="fcbw0f38C-8INg9Vh3hB-2" target="fcbw0f38C-8INg9Vh3hB-3">
          <mxGeometry relative="1" as="geometry" />
        </mxCell>
        <mxCell id="fcbw0f38C-8INg9Vh3hB-2" value="initialize address counter at 0" style="rounded=0;whiteSpace=wrap;html=1;" vertex="1" parent="1">
          <mxGeometry x="365" y="50" width="120" height="60" as="geometry" />
        </mxCell>
        <mxCell id="fcbw0f38C-8INg9Vh3hB-6" value="" style="edgeStyle=orthogonalEdgeStyle;rounded=0;orthogonalLoop=1;jettySize=auto;html=1;" edge="1" parent="1" source="fcbw0f38C-8INg9Vh3hB-3" target="fcbw0f38C-8INg9Vh3hB-5">
          <mxGeometry relative="1" as="geometry" />
        </mxCell>
        <mxCell id="fcbw0f38C-8INg9Vh3hB-3" value="toggle clock pin high" style="whiteSpace=wrap;html=1;rounded=0;" vertex="1" parent="1">
          <mxGeometry x="560" y="50" width="120" height="60" as="geometry" />
        </mxCell>
        <mxCell id="fcbw0f38C-8INg9Vh3hB-10" value="" style="edgeStyle=orthogonalEdgeStyle;rounded=0;orthogonalLoop=1;jettySize=auto;html=1;" edge="1" parent="1" source="fcbw0f38C-8INg9Vh3hB-5" target="fcbw0f38C-8INg9Vh3hB-7">
          <mxGeometry relative="1" as="geometry" />
        </mxCell>
        <mxCell id="fcbw0f38C-8INg9Vh3hB-5" value="toggle clock pin low" style="whiteSpace=wrap;html=1;rounded=0;" vertex="1" parent="1">
          <mxGeometry x="760" y="50" width="120" height="60" as="geometry" />
        </mxCell>
        <mxCell id="fcbw0f38C-8INg9Vh3hB-12" value="" style="edgeStyle=orthogonalEdgeStyle;rounded=0;orthogonalLoop=1;jettySize=auto;html=1;" edge="1" parent="1" source="fcbw0f38C-8INg9Vh3hB-7" target="fcbw0f38C-8INg9Vh3hB-11">
          <mxGeometry relative="1" as="geometry" />
        </mxCell>
        <mxCell id="fcbw0f38C-8INg9Vh3hB-13" value="yes" style="edgeLabel;html=1;align=center;verticalAlign=middle;resizable=0;points=[];" vertex="1" connectable="0" parent="fcbw0f38C-8INg9Vh3hB-12">
          <mxGeometry x="0.125" y="-3" relative="1" as="geometry">
            <mxPoint as="offset" />
          </mxGeometry>
        </mxCell>
        <mxCell id="fcbw0f38C-8INg9Vh3hB-28" value="" style="edgeStyle=orthogonalEdgeStyle;rounded=0;orthogonalLoop=1;jettySize=auto;html=1;" edge="1" parent="1" source="fcbw0f38C-8INg9Vh3hB-7" target="fcbw0f38C-8INg9Vh3hB-27">
          <mxGeometry relative="1" as="geometry" />
        </mxCell>
        <mxCell id="fcbw0f38C-8INg9Vh3hB-29" value="no" style="edgeLabel;html=1;align=center;verticalAlign=middle;resizable=0;points=[];" vertex="1" connectable="0" parent="fcbw0f38C-8INg9Vh3hB-28">
          <mxGeometry x="-0.0316" y="-3" relative="1" as="geometry">
            <mxPoint as="offset" />
          </mxGeometry>
        </mxCell>
        <mxCell id="fcbw0f38C-8INg9Vh3hB-7" value="is the read pin reading high?" style="shape=parallelogram;perimeter=parallelogramPerimeter;whiteSpace=wrap;html=1;fixedSize=1;" vertex="1" parent="1">
          <mxGeometry x="950" y="50" width="120" height="60" as="geometry" />
        </mxCell>
        <mxCell id="fcbw0f38C-8INg9Vh3hB-15" value="" style="edgeStyle=orthogonalEdgeStyle;rounded=0;orthogonalLoop=1;jettySize=auto;html=1;" edge="1" parent="1" source="fcbw0f38C-8INg9Vh3hB-11" target="fcbw0f38C-8INg9Vh3hB-14">
          <mxGeometry relative="1" as="geometry" />
        </mxCell>
        <mxCell id="fcbw0f38C-8INg9Vh3hB-11" value="run bit redundancy on packet" style="whiteSpace=wrap;html=1;" vertex="1" parent="1">
          <mxGeometry x="950" y="-90" width="120" height="60" as="geometry" />
        </mxCell>
        <mxCell id="fcbw0f38C-8INg9Vh3hB-30" style="edgeStyle=orthogonalEdgeStyle;rounded=0;orthogonalLoop=1;jettySize=auto;html=1;" edge="1" parent="1" source="fcbw0f38C-8INg9Vh3hB-14" target="fcbw0f38C-8INg9Vh3hB-27">
          <mxGeometry relative="1" as="geometry" />
        </mxCell>
        <mxCell id="fcbw0f38C-8INg9Vh3hB-14" value="SPI packing and send" style="whiteSpace=wrap;html=1;" vertex="1" parent="1">
          <mxGeometry x="950" y="-230" width="120" height="60" as="geometry" />
        </mxCell>
        <mxCell id="fcbw0f38C-8INg9Vh3hB-22" style="edgeStyle=orthogonalEdgeStyle;rounded=0;orthogonalLoop=1;jettySize=auto;html=1;" edge="1" parent="1" source="fcbw0f38C-8INg9Vh3hB-16" target="fcbw0f38C-8INg9Vh3hB-3">
          <mxGeometry relative="1" as="geometry">
            <mxPoint x="610" y="230" as="targetPoint" />
            <Array as="points">
              <mxPoint x="1410" y="250" />
              <mxPoint x="610" y="250" />
            </Array>
          </mxGeometry>
        </mxCell>
        <mxCell id="fcbw0f38C-8INg9Vh3hB-23" value="no" style="edgeLabel;html=1;align=center;verticalAlign=middle;resizable=0;points=[];" vertex="1" connectable="0" parent="fcbw0f38C-8INg9Vh3hB-22">
          <mxGeometry x="0.8155" y="1" relative="1" as="geometry">
            <mxPoint as="offset" />
          </mxGeometry>
        </mxCell>
        <mxCell id="fcbw0f38C-8INg9Vh3hB-16" value="is the address counter equal to 64" style="shape=parallelogram;perimeter=parallelogramPerimeter;whiteSpace=wrap;html=1;fixedSize=1;" vertex="1" parent="1">
          <mxGeometry x="1360" y="50" width="120" height="60" as="geometry" />
        </mxCell>
        <mxCell id="fcbw0f38C-8INg9Vh3hB-24" style="edgeStyle=orthogonalEdgeStyle;rounded=0;orthogonalLoop=1;jettySize=auto;html=1;" edge="1" parent="1" source="fcbw0f38C-8INg9Vh3hB-16" target="fcbw0f38C-8INg9Vh3hB-2">
          <mxGeometry relative="1" as="geometry">
            <mxPoint x="220" y="260" as="targetPoint" />
            <mxPoint x="1270" y="120" as="sourcePoint" />
            <Array as="points">
              <mxPoint x="1440" y="290" />
              <mxPoint x="425" y="290" />
            </Array>
          </mxGeometry>
        </mxCell>
        <mxCell id="fcbw0f38C-8INg9Vh3hB-25" value="yes" style="edgeLabel;html=1;align=center;verticalAlign=middle;resizable=0;points=[];" vertex="1" connectable="0" parent="fcbw0f38C-8INg9Vh3hB-24">
          <mxGeometry x="0.8155" y="1" relative="1" as="geometry">
            <mxPoint as="offset" />
          </mxGeometry>
        </mxCell>
        <mxCell id="fcbw0f38C-8INg9Vh3hB-31" value="" style="edgeStyle=orthogonalEdgeStyle;rounded=0;orthogonalLoop=1;jettySize=auto;html=1;" edge="1" parent="1" source="fcbw0f38C-8INg9Vh3hB-27" target="fcbw0f38C-8INg9Vh3hB-16">
          <mxGeometry relative="1" as="geometry" />
        </mxCell>
        <mxCell id="fcbw0f38C-8INg9Vh3hB-27" value="increment address counter" style="rounded=0;whiteSpace=wrap;html=1;" vertex="1" parent="1">
          <mxGeometry x="1155" y="50" width="120" height="60" as="geometry" />
        </mxCell>
      </root>
    </mxGraphModel>
  </diagram>
</mxfile>
